<?xml version="1.0" encoding="utf-8"?>
<!-- Generator: Adobe Illustrator 21.1.0, SVG Export Plug-In . SVG Version: 6.00 Build 0)  -->
<svg version="1.1" id="レイヤー_1" xmlns="http://www.w3.org/2000/svg" xmlns:xlink="http://www.w3.org/1999/xlink" x="0px"
	 y="0px" viewBox="0 0 13 16" style="enable-background:new 0 0 13 16;" xml:space="preserve">
<style type="text/css">
	.st0{fill:#00708D;}
</style>
<path class="st0" d="M0,0v16h13V0H0z M1,4h3v3H1V4z M1,8h3v3H1V8z M1,15v-3h3v3H1z M5,15v-3h3v3H5z M8,7H5V4h3V7z M8,8v3H5V8H8z
	 M12,15H9V8h3V15z M12,7H9V4h3V7z M1,3V1h11v2H1z"/>
</svg>
