<svg xmlns="http://www.w3.org/2000/svg" width="126.492" height="32.264" viewBox="0 0 126.492 32.264"><g transform="translate(-5840.159 -2221.353)"><path d="M5907.021,2231.98h5.3c1.686,0,2.735.79,3.918,2.346l8.724,14.022h.067V2231.98h2.6a2.366,2.366,0,0,1,2.424,2.422v21.977h-1.972a5.077,5.077,0,0,1-4.9-2.428l-8.642-13.906h-.068v16.334h-2.6a2.366,2.366,0,0,1-2.423-2.423V2234.4A2.407,2.407,0,0,0,5907.021,2231.98Z" transform="translate(-21.035 -3.343)" fill="#00708d"/><path d="M5948.413,2231.98h19.976a2.4,2.4,0,0,1,2.423,2.422v2.461H5963.5v19.516h-2.942a2.344,2.344,0,0,1-2.421-2.423v-17.093h-4.891a2.383,2.383,0,0,1-2.424-2.461A2.391,2.391,0,0,0,5948.413,2231.98Z" transform="translate(-34.056 -3.343)" fill="#00708d"/><path d="M5886.5,2256.576v-16.269h2.942a2.379,2.379,0,0,1,2.423,2.422V2259h-2.942A2.4,2.4,0,0,1,5886.5,2256.576Z" transform="translate(-14.577 -5.963)" fill="#00708d"/><path d="M5842.581,2234.4v19.554a2.378,2.378,0,0,0,2.423,2.423h2.942v-8.985l0,0,6.728,6.849c1.993,1.944,3.209,2.138,4.889,2.138h3.909l-12.291-12.2,9.833-9.76,2.458-2.44h-6.7l-8.827,8.987h0l-.019-6.563a2.44,2.44,0,0,0-2.424-2.422h-5.345A2.509,2.509,0,0,1,5842.581,2234.4Z" transform="translate(0 -3.343)" fill="#00708d"/><path d="M6000.2,2231.132a12.781,12.781,0,1,0,12.781,12.781A12.781,12.781,0,0,0,6000.2,2231.132Zm0,20.663a7.882,7.882,0,1,1,7.883-7.882A7.882,7.882,0,0,1,6000.2,2251.795Z" transform="translate(-46.327 -3.076)" fill="#00708d"/><path d="M5885.525,2226.217a2.4,2.4,0,0,0-2.819,0,2.908,2.908,0,0,0-.765,3.919,3.513,3.513,0,0,0,3.648,1.6,5.622,5.622,0,0,0,4-2.252,5.147,5.147,0,0,0-.041-5.788,5.018,5.018,0,0,0-4.448-2.345c-1.851,0-3.127,1.39-4.01,2.436-1.373,1.625-2,1.983-3.178,2.082a3.7,3.7,0,0,1-2.82-.964,9.71,9.71,0,0,1-.846-.976,7.7,7.7,0,0,0,1.541,1.96,4.032,4.032,0,0,0,3.985.609,14.055,14.055,0,0,0,3.5-2.177,2.325,2.325,0,0,1,3.365,1.169,2.94,2.94,0,0,1-.393,2.531A1.778,1.778,0,0,0,5885.525,2226.217Z" transform="translate(-10.725 0)" fill="#00708d"/></g></svg>