<?xml version="1.0" encoding="UTF-8"?>
<svg id="_レイヤー_1" data-name="レイヤー 1" xmlns="http://www.w3.org/2000/svg" viewBox="0 0 413 255">
  <defs>
    <style>
      .cls-1 {
        opacity: .25;
      }

      .cls-1, .cls-2, .cls-3 {
        fill: #fff;
      }

      .cls-2 {
        opacity: .15;
      }

      .cls-4 {
        fill: #eb0a1e;
      }

      .cls-5 {
        fill: #e9e9e9;
      }

      .cls-6 {
        opacity: .2;
      }

      .cls-7 {
        opacity: .1;
      }

      .cls-8 {
        fill: #feb34b;
      }
    </style>
  </defs>
  <g>
    <path d="M133.6048654155,143.1873389053h218.2418900377l12.9830721034-36.0988992038H115.1513518421l18.4535135734,36.0988992038Z"/>
    <path class="cls-1" d="M133.6048654155,143.1873389053h218.2418900377l12.9830721034-36.0988992038H115.1513518421l18.4535135734,36.0988992038Z"/>
    <path d="M379.2994737821,94.7162560658c.9117304863-2.1918548472,1.7444152884-6.4292948945,1.6983697136-8.8783292664-.0291590746-1.5667674324-.5241607142-3.0900128967-1.4320735867-4.3956895069l-.8280708763-1.1868738746c-3.1719217912-10.4569916105-7.2141189987-19.6004049699-7.2141189987-19.6004049699l2.6224196162-2.2710586226c2.1649851698-1.7250139644.7160250829-3.7744343441-1.5065287659-3.9050558733-15.5855370757-.9059835723-50.2899415966-2.5321465173-109.60444112-1.5983827785-56.3167827095.8862602103-86.9582976193,16.4074745925-100.1708481265,25.5271713191-6.7643666218,4.6686723132-14.5402486595,7.8378128673-22.757416403,9.2858536822-2.0437349456.3600911502-3.9209469834.6765900694-5.3322930351.8902476259-5.2286904918.7833427296-18.4949569328,4.2333706584-22.8779054465,7.1651399508-.7620940786.5104360413-1.2363798938,1.3174924762-1.2908687187,2.2037526864-.2908646966,4.7520977137-1.3568689373,23.9446708679-.3660810565,36.2569964273,0,0-1.465073696,5.7175558443-.0207158245,6.6154796844,3.8173327296,2.3660656797,23.3813620467,2.3660656797,23.3813620467,2.3660656797-1.0153447401-2.7897037047-1.8142682523-6.2870009526-1.6523358493-9.4320472112.6247068244-12.1826203746,11.0314283074-22.0574932187,23.8479657924-22.6277170735,14.3737140412-.6408262887,26.2792822206,10.2869994753,26.2792822206,23.810369323,0,2.8841018172-.5410589249,5.6538625886-1.53567613,8.2133267088h123.8898933358c-1.0951633153-2.8204085615-1.6400515645-5.8948406756-1.5195742314-9.0997391552.4704564909-12.3008083105,10.9270645834-22.3537330218,23.8648640031-22.927792056,14.3698730064-.6369911092,26.2792822206,10.2908346548,26.2792822206,23.8103634677,0,2.9002271368-.5456611403,5.6776582671-1.548733306,8.2494066721l31.7527801237-.8234803714c1.2194816831-.1818870468,2.1151219812-1.190334319,2.098235481-2.3660773902-.3039101621-23.1058380681-6.0690690739-45.2855124935-6.0690690739-45.2855124935h.0122959953v.0039874156Z"/>
    <path class="cls-5" d="M169.4366838908,86.8073782009c-.9746742718.0672298182-1.357630118-1.1711408558-.5042177809-1.6221755294,16.6553589302-8.7952903114,31.5993026814-15.0583609151,44.5324881752-18.6666383035,12.0345004731-3.3550940622,43.2922789572-5.2819497172,85.755690726-5.2819497172,13.4166874502,0,26.8333983215.2136604842,37.2938474487.5895607712.9078894515.0316212013,1.7152562139.549961811,2.0813255598,1.3372948838,1.4696876219,3.1612359857,3.7382870455,8.7477106648,5.0245418383,15.4302708588.2701605826,1.4005314311-.8656849115,2.6864056336-2.3645316079,2.6705964968-4.745176825-.0475035285-14.2654858615-.1622368752-19.1695503668-.3204863348-2.2471224185-.071223089-5.1450425923-.1107459311-8.6039646244-.1107459311-28.9891790605,0-93.8063355616,2.4965379004-144.0502315834,5.9702795345l.0046022154.0039932709Z"/>
    <path class="cls-3" d="M114.726940926,108.8574294148c1.3783576529-.3399842702,14.5655784098-3.3630015582,17.5793854118-4.074430281,3.6799571858-.874906908,5.8940677845-4.4751216366,6.8518555561-5.9350602908.2164329383-.3283909032-.0544888249-.7438198875-.4581722061-.7201003271-14.0651899532.8506486658-22.1326978681.2175688541-24.9630837516-.0593252497-.5579454251-.0554139522-1.0537199559.3442000401-1.0828790305.8782736686-.1120575039,1.9030687593-.2747510875,4.9812599348-.4205698814,8.66045594-.0414433594.9539467368.358398987,1.6937733535,2.4980778274,1.2501865399h-.0046139259Z"/>
    <path class="cls-2" d="M239.0074838879,93.6162621809l-16.0805387154.4629266576c-1.1910954996.0356115445-2.1312355903.9811970045-2.0943944463,2.1167263159.0375906142,1.1355293113,1.0330041314,2.0257066744,2.2271677746,1.9900951299l16.0805152944-.4629325128c1.1949365344-.0356115445,2.1312355903-.9811911493,2.0936449761-2.1167263158-.036841144-1.1315360405-1.0322312403-2.0257008192-2.2263948835-1.9900892747Z"/>
    <path class="cls-2" d="M268.5760736682,92.7596236089l-16.0805387154.4629325128c-1.1910954996.0356056893-2.1312355903.9811911493-2.0943944463,2.1167204606.0376140352,1.1354531933,1.0322312403,2.0257066744,2.2271677746,1.9900951299l16.0805387154-.4629266576c1.1949365344-.0356115445,2.1312355903-.9811970045,2.0936215551-2.1167263158-.036841144-1.1315418957-1.0322312403-2.0257066744-2.2263948835-1.9900951299Z"/>
    <g>
      <path d="M156.8925915609,157.0376410232c11.2432590303,0,20.3598846857-9.1169305476,20.3598846857-20.3598762656,0-11.2437588859-9.1166256554-20.359882426-20.3598846857-20.359882426-11.2432473199,0-20.3598729753,9.1161235401-20.3598729753,20.359882426,0,11.242945718,9.1166256554,20.3598762656,20.3598729753,20.3598762656Z"/>
      <path class="cls-5" d="M156.8925974161,151.1389628728c7.9884612475,0,14.4612011954-6.4726015166,14.4612011954-14.4608038478,0-7.9890031868-6.4727399479-14.461598543-14.4612011954-14.461598543-7.9877000669,0-14.4612011954,6.4725953562-14.4612011954,14.461598543,0,7.9882023312,6.4735011284,14.4608038478,14.4612011954,14.4608038478Z"/>
    </g>
    <g>
      <path d="M328.3107390617,157.0376410232c11.2432590303,0,20.3598846857-9.1169305476,20.3598846857-20.3598762656,0-11.2437588859-9.1166256554-20.359882426-20.3598846857-20.359882426-11.2432473199,0-20.3598729753,9.1161235401-20.3598729753,20.359882426,0,11.242945718,9.1166256554,20.3598762656,20.3598729753,20.3598762656Z"/>
      <path class="cls-5" d="M328.3107449169,151.1389628728c7.9884612475,0,14.4612011954-6.4726015166,14.4612011954-14.4608038478,0-7.9890031868-6.4727399479-14.461598543-14.4612011954-14.461598543-7.9877000669,0-14.4612011954,6.4725953562-14.4612011954,14.461598543,0,7.9882023312,6.4735011284,14.4608038478,14.4612011954,14.4608038478Z"/>
    </g>
    <path class="cls-2" d="M131.9479273508,133.7591210184c.0414433594-.8388327998.1373755438-1.6653813148.2701371616-2.4850323619-7.8756435462-.9370602366-15.3314901022-2.0567804111-22.307687447-3.343035204.0667731098,2.2079743115.1703756531,4.332289013.324637697,6.2793305937,0,0-1.465073696,5.7167946636-.0207158245,6.6147185037,3.8173327296,2.3660656797,23.3813503363,2.3660656797,23.3813503363,2.3660656797-1.0153447401-2.7889308136-1.8142682523-6.2870009526-1.6523358493-9.4320472112h.0046139259Z"/>
    <path class="cls-2" d="M345.5190489009,117.9172651376c4.6500409527,4.3284596888,7.5471882354,10.3576077646,7.5471882354,17.0206670956,0,2.9002271368-.5456611403,5.6776582671-1.548733306,8.2494066721l31.7527801237-.8234803714c1.219505104-.1818870468,2.1151219812-1.190334319,2.098235481-2.3653044991-.1627052941-12.3606722419-1.8856435774-24.4596388618-3.4589220321-33.0329103399-10.6691999961,3.9562423451-22.8994058726,7.6438757452-36.395139007,10.9516214426h.0045905049Z"/>
    <path class="cls-2" d="M302.9220909126,134.0576677844c.1082281796-2.7935564499.732935004-5.4643051828,1.7820527445-7.9408825842-19.5064840591,3.1534777982-40.5532230427,5.567134835-62.5447160428,7.0421858529-20.9301026852,1.4052097646-41.1318842923,1.851870577-60.0804112158,1.4481871958,0,.1112846128.0084432501.2217963344.0084432501.332308056,0,2.8848747084-.5410589249,5.6538625886-1.5356878405,8.2140995999h123.8898933358c-1.0951633153-2.8211697422-1.6400515645-5.8956018563-1.5195742314-9.0997391552v.0038410347Z"/>
    <path class="cls-2" d="M362.2864770455,80.3867490554l-7.5226196657,1.9306937621c-1.0199586659.2611669403-1.1151179591,1.5984618242-.1458187939,1.9861838324l24.6806623051,10.4094851543c.9117304863-2.1918607024,1.7444387094-6.4293007497,1.6983931346-8.8783351216-.0291824955-1.5667615772-.5241841352-3.0900128967-1.4313241165-4.3956133888l-.8288437674-1.1869499926h-15.3645136325c-.366069346,0-.732138692.0474332657-1.0859354636.1345357544Z"/>
    <path d="M340.7247583575,59.5409939704c-.3039101621-.5815771571-.9117539072-.9613945968-1.5947788808-.9890986453-6.922481411-.2769760771-15.9554474564-.4985411297-26.045986203-.6092841332-.0076586485-.0197994801-.0122725744-.0316182736-.0122725744-.0316182736-2.4182592522-.0198024077-4.8825640792-.0316973193-7.3890734462-.0396018877v.0118949117c-33.904743249-.1701443712-76.2599502591.9574803717-92.5737849921,5.2304529178-.2164329383.0514206813-.429024842.1107459311-.6370028197.166154028h-.0122725744c-.9531855562.2650811655-1.9063711123.5459714678-2.8595566685.8348424566-.2210234433.0672268905-.4412739954.1345328268-.6661384734.2017626449-.9409129818.2887948707-1.8818025427.5855704279-2.8227155245.8941647787-.0207275349.0079045684-.0376140352.0118978393-.0583181492.0198024077-20.0475312735,6.5756523701-39.7742541743,17.3214388512-49.718974127,22.9634036006-1.4735169461.8347634109-.753639118,2.9910886869.9570148804,2.8604642301,8.9002044275-.6805013669,18.4120819245-1.3293141974,28.227857873-1.9346811777,1.9524166871-.1226437703,3.9171059486-.2413645326,5.8902384603-.3561037345,15.0897508345-.8980760762,30.7205605939-1.6933166451,45.7849816781-2.362002146.9370719471-.0395228421,1.8733475821-.083115073,2.8058290242-.1226379151.2954552015-.0118978393.5955477498-.0277069761.8910029513-.0396048153,1.1949365344-.0514148261,2.3852591429-.1028355074,3.5671502117-.1503448912.3952284206-.0158091368.7866392274-.0316182736,1.1780500341-.0474274105.6699795081-.0277069761,1.3361414024-.055408097,2.0022798757-.083115073.4497523769-.0198024077.8994813329-.0356115445,1.3492102888-.055408097.6446614682-.027630858,1.2862547928-.0514206813,1.9270752263-.0791276574,23.1027699245-.9257830523,43.9208268163-1.499455641,58.0236308047-1.6102776901h.3000691274c.5203431004,0,1.036072275-.0079045684,1.5395288752-.0079045684h.1082047587c.4957745308,0,.978503596-.0039171528,1.4528011216-.0039171528h1.8610750077c.449728956,0,.8910263723,0,1.3192549022.0039171528h.2125919036c.445138451,0,.8825714117.0039874156,1.3069823278.0079045684h.0207275349c.4251603863,0,.8326848022.0079045684,1.2363681833.011891984h.1580913682c.3875697721.0039171528.7582530439.0118978393,1.1243223899.0198024077h.1872738638c.3576378063.0079045684.7075935432.0158091368,1.0445038146.0237137052h.1419777591c.3491828458.0079045684.6868660083.0198024077,1.0115037053.0277069761,7.7965978621.2531862538,17.6707036703.3996139922,24.0099099058.332308056,1.09900435-.011815866,1.957030613-.9178784839,1.8403708937-1.9544835854-1.2325505695-11.1493146986-5.5947715483-20.2730017684-7.0936182447-23.1453667654v.0118187936h.0046139259ZM306.4324453365,61.2541891412c.894867407,4.3322977959,2.2724404583,12.1741010065,2.3683726426,19.6004049699-14.174167603.1068287783-34.6752688673.6765139513-57.3283098358,1.582570714-.2002959083-5.1711276681-.5832517545-15.0108515313-.7827981926-20.1424563573,13.5993473882-.6923230881,29.99606884-1.0603188067,48.5324808427-1.0603188067,2.4105771827,0,4.8204048953.0079045684,7.2102545431.0197994801ZM213.4665000674,66.5162632603c5.1496330972-1.4361429756,13.8165297967-2.6112741747,25.3675283134-3.4816491301-.4865701,5.1236241396-1.4067555468,14.8684141361-1.8979161518,20.015828099-13.9370305507.6171887016-28.3230171662,1.349116605-42.276161326,2.1602424288,3.4673769927-4.1504136767,10.2232886539-12.2414098703,14.5571234492-17.4283466752,1.4359146214-.4510346736,2.8549427426-.8743652986,4.2455846804-1.2620843792l.0038410347-.0039903432ZM168.9340001818,85.1829776819c11.7850791359-6.2235419064,22.7075297935-11.1731074495,32.6729772811-14.8169963824l-13.2163915419,15.2126171038c-6.4727407446.3917152791-12.8211514109.7992338397-18.9485269235,1.2225615372-.9739013806.0672298182-1.3568689373-1.1711408558-.5034566002-1.6221755294h-.0046022154v.0039932708ZM341.2573740323,81.2660298246c-4.7452002459-.0474332657-14.2655092824-.1621666124-19.1695503668-.32049219-.2740016173-.0079045684-.5571842445-.0158091368-.8488218322-.0237137052-1.506505345-5.380797809-4.9539276938-14.6191450351-6.8518438456-19.5964146267,8.0383488403.0949338666,15.6476728387.2650811655,22.1288568334.4985411297.9079128725.0316182736,1.7152796348.5498827654,2.0813489808,1.3372187658,1.4696876219,3.1612330581,3.7382870455,8.7477867829,5.0245418383,15.4302708588.2701371617,1.4006075492-.8656849115,2.6864817517-2.3645316079,2.6706726149v.0039171528Z"/>
    <path class="cls-2" d="M340.7201444317,59.5288677769c-.3039101621-.5815771571-.9071399814-.9494967576-1.5901649549-.9772037337-6.922481411-.2769731495-15.9677200308-.5301594033-26.0582587773-.6409785249-2.4182592522-.0198024077-4.8825640792-.0316212013-7.3883005551-.0395257697-33.9055161401-.1701443712-76.2607231502.9692991653-92.5745578832,5.2422717114-.2164329383.0514967994-.4412974163.1108220491-.6492753941.1662330737-.9531855562.2650782379-1.9063711123.5459685402-2.8595566685.8347634109-.2210234433.0673059362-.4412739954.1345357544-.6661384734.2018416906-.9409129818.2887919431-1.8818025427.5854913822-2.8227155245.8941647787-.0207275349.0079045684.0207275349-.0079836141,0,0-20.0475195631,6.5756523701-39.8325723235,17.3412354037-49.7772922761,22.9831240349-1.4735169461.834839529-.753639118,2.9910886869.9570148804,2.8605462034,8.9002044275-.6805072221,18.4120819245-1.3293903154,28.227857873-1.934687033,1.9524166871-.1226379151,3.9171059486-.2413645326,5.8902384603-.3560978793,15.0897508345-.8981580496,30.7205605939-1.6933927632,45.7849816781-2.362002146,2.8142605639-.1188788537,5.6277716576-.2470441114,8.4420322215-.3600911502,1.7720520017-.0732197244,3.5287632854-.1419836144,5.2785653909-.2175747093,23.1027699245-.9257830523,44.2201230525-1.4995376143,58.323699932-1.6102776901.5203431004,0,1.1442770337-.0079104237,1.6485065251-.0079104237.4950016396,0,.9777307049-.0039874156,1.4520282305-.0039874156h1.8610750077c.449728956,0,1.1028453848,0,1.5318468058.0039874156.445138451,0,.8825714117.0039171528,1.3069823278.0079104237.4244109161,0,1.0115037053.0079045684,1.4151870865.011891984.3875697721.0039171528.9455034867.0118217212,1.3115962537.0197262896.3576378063.0079045684.8487984112.0158852549,1.1864815738.0237898233.3491828458.0079045684.6868660083.0197204344,1.0115037053.0277069761,7.7965978621.2531803986,17.6707036703.3995378742,24.0099099058.332308056,1.09900435-.0118978393,1.957030613-.9178784839,1.8403708937-1.9544835854-1.2325505695-11.1493937443-5.5947715483-20.273004696-7.0936182447-23.1454458111ZM306.4324453365,61.253960787c.894867407,4.3322977959,2.2724404583,12.1740248884,2.3683726426,19.6003229966-14.174167603.1068346335-34.6752688673.6765959246-57.3283098358,1.5826526873-.2002959083-5.1711276681-.5832517545-15.010930577-.7827981926-20.1424563573,13.5993473882-.6924021338,29.99606884-1.0603217343,48.5324808427-1.0603217343,2.4105771827,0,4.8204048953.0079045684,7.2102545431.0198024077ZM213.4665000674,66.5160319785c5.1496330972-1.4362190937,13.8165297967-2.6112741747,25.3675283134-3.4817252482-.4865701,5.1237002576-1.4067555468,14.8684931818-1.8979161518,20.0158310266-13.9370305507.6172648196-28.3230171662,1.3491868679-42.276161326,2.1602365735,3.4673769927-4.1503317034,10.2232886539-12.2413308246,14.5571234492-17.4282676295,1.4359146214-.4510346735,2.8549427426-.8743652986,4.2455846804-1.2620843792l.0038410347-.0039903432ZM168.9340001818,85.1826673544c11.7850791359-6.2235419064,22.7075297935-11.1730284038,32.6729772811-14.8169905272l-13.2163915419,15.2126932219c-6.4727407446.3916333058-12.8211514109.7991518664-18.9485269235,1.2225615372-.9739013806.0672298182-1.3568689373-1.1711408558-.5034566002-1.6221755294h-.0046022154v.0039112976ZM341.2573740323,81.2657956151c-4.7452002459-.0475035285-14.2655092824-.1622368752-19.1688008966-.3204863348-.2747510875-.0079045684-.5579337147-.0158091368-.8495713024-.0237195605-1.506505345-5.380797809-4.9539276938-14.6192182255-6.8518438456-19.5964878171,8.0383488403.0950129123,15.6476728387.2651572836,22.1288568334.4985411297.9079128725.0316973193,1.7152796348.549961811,2.0813489808,1.3372948838,1.4696876219,3.1612330581,3.7382870455,8.7477867829,5.0245418383,15.4302679312.2701371617,1.4006134044-.8656849115,2.6864876069-2.3645316079,2.6706023521v.0039874156Z"/>
    <path d="M167.8242573292,83.4892745912l.8495713024,5.3569318676c.0867277536.542973587.6193434284.9180307201,1.1888002472.8327667755l11.5310438729-1.713347407c.5648546034-.0851117085.952412665-.5877954175.8610826961-1.1306987418l-1.266300149-7.5598355449c-.1020684715-.6164216657-.7728325812-.9917891262-1.3852551208-.7741382988l-11.173417777,3.9342969211c-.423638025.1797381752-.6722981815.6088976876-.601684037,1.0498028031l-.0038410347.0042216251Z"/>
    <path class="cls-1" d="M175.7298328411,84.6577278938c2.1066787311-.3203340987,4.1112772802-.7322323757,5.9593068225-1.2055228008l-.698377402-4.1721248913c-.102080182-.6170364654-.7728325812-.9927845163-1.3852668312-.7749053347l-11.178781173,3.9384365729c-.4244109161.1798962666-.6722981815.6095183426-.601684037,1.0508801665l.2939328402,1.8474264529c2.3476568182-.0559467786,4.9263026911-.2783579128,7.6154837065-.6884117906l-.0046139259.0042216251Z"/>
  </g>
  <g>
    <path class="cls-8" d="M383.6513671875,66.4375c-.71875,0-1.4208984375-.26953125-1.9765625-.7587890625l-7.4541015625-6.38671875-7.4111328125,6.396484375c-.578125.4873046875-1.2724609375.7490234375-1.9677734375.7490234375-1.76953125,0-3.208984375-1.5810546875-3.208984375-3.5244140625v-26.525390625c0-1.943359375,1.435546875-3.5244140625,3.2001953125-3.5244140625h18.8359375c1.7646484375,0,3.2001953125,1.5810546875,3.2001953125,3.5244140625v26.525390625c0,1.943359375-1.439453125,3.5244140625-3.2080078125,3.5244140625h-.009765625Z"/>
    <path class="cls-3" d="M383.668762207,34.3631591797c.9360351562,0,1.700012207.9085693359,1.700012207,2.0245361328v26.525390625c0,1.1158447266-.7639770508,2.0244140625-1.7080078125,2.0244140625h-.008972168c-.3520507812,0-.6950073242-.1282958984-.9869995117-.3851318359l-8.4479980469-7.2387695312-8.3880004883,7.2387695312c-.2920532227.2468261719-.6350097656.3851318359-.9869995117.3851318359-.9440307617,0-1.7090454102-.9085693359-1.7090454102-2.0244140625v-26.525390625c0-1.1159667969.7650146484-2.0245361328,1.700012207-2.0245361328h18.8359985352M383.668762207,31.3631591797h-18.8359985352c-2.5916137695,0-4.700012207,2.2540283203-4.700012207,5.0245361328v26.525390625c0,2.7705078125,2.112487793,5.0244140625,4.7090454102,5.0244140625,1.0505981445,0,2.0888061523-.3884277344,2.9234619141-1.09375l6.4584960938-5.5734863281,6.4890136719,5.5601806641c.8009643555.7048339844,1.8551635742,1.1070556641,2.9390258789,1.1070556641,2.6049804688,0,4.7169799805-2.25390625,4.7169799805-5.0244140625v-26.525390625c0-2.7705078125-2.1083984375-5.0245361328-4.700012207-5.0245361328h0Z"/>
  </g>
  <g>
    <path class="cls-5" d="M132.3363358615,155.8977392371c-6.7370338571,0-12.7806793773-.5012962208-18.5229282588-1.5564512259-.5242562173-.0989538501-.632653722-.8771839092-.1446426425-1.1277786656,13.2982930239-6.8324841291,40.6542307138-18.4464586655,78.4397156852-22.1133532866,5.7542624195-.5606214015,11.5574504397-.8441978104,17.2394359996-.8441978104,29.4227819903,0,50.9700362001,7.3271422254,62.5204972683,12.5043324327-13.8407340563,2.9876184121-46.3964795953,9.2067985297-78.6748200024,9.5167140206-12.8407026059.1252973782-24.3550252442,1.1344123439-34.5138277491,2.0312927644-9.2496951304.8112117117-17.9807184269,1.5827992002-26.3504285641,1.5827992002l.0069982638.0066425706Z"/>
    <path d="M44.4430661538,192.4160671598l15.2188651623,15.9209790983,239.9287487207.0116578448,13.4782471094-26.9175724897-46.9151336445-24.9336047065H112.9277137336l-69.9924999983,14.8360970334,1.5136813409,21.0766187434-.0058289224.0058244763Z"/>
    <path class="cls-1" d="M44.4430661538,192.4160671598l15.2188651623,15.9209790983,239.9287487207.0116578448,13.4782471094-26.9175724897-46.9151336445-24.9336047065H112.9277137336l-69.9924999983,14.8360970334,1.5136813409,21.0766187434-.0058289224.0058244763Z"/>
    <path d="M272.9511636279,220.636849278c12.6302538802,0,22.8719580448-10.2407383464,22.8719580448-22.8712105418,0-12.6301271892-10.2417041647-22.871555548-22.8719580448-22.871555548-12.629086188,0-22.870808045,10.2414283587-22.870808045,22.871555548,0,12.6304721954,10.241721857,22.8712105418,22.870808045,22.8712105418Z"/>
    <path class="cls-5" d="M274.631618224,213.8477064962c-10.2161705726,1.0372235743-18.7856487904-7.5145653952-17.7648281588-17.736136245.7869873331-7.8801765301,7.3852339622-14.1168767353,15.2955836115-14.4948974144,9.5329880628-.4555635061,17.3854572774,7.3914240522,16.93889402,16.9222703928-.3704697388,7.906808489-6.5946497892,14.5092332214-14.4696494728,15.3087632666Z"/>
    <path class="cls-4" d="M320.4001553974,158.6724130187c-2.1457548383-4.7558493732-.939421328-8.9317276345.1503515184-11.2400742837.4871929851-1.0381395314-.080422234-2.2734931611-1.1888689738-2.5983255359-9.4303339254-2.7491483479-45.8474849155-13.177312872-72.7177413165-18.3159237048-29.6372472093-5.6723151509-69.8307218356-5.7941133972-125.0973896944,16.3439516749-7.7544320284,3.1087186104-15.7756428541,5.5041256182-23.9707520885,7.1338941063-8.6070197523,1.7108887701-19.3947500929,3.4276109087-25.873146081,4.7500248969-12.4116699062,2.5345719748-37.6758158634,10.213588151-42.4838832225,18.3507727467-3.6424151477,7.3600038315-.5452376703,28.3030508835,4.5180818031,31.0175769439,7.3832016979,3.9558331052,19.0465998053,4.2285697637,25.9252395742,4.2285697637-1.6239395657-3.62598101-2.5229185761-7.6447540281-2.5229185761-11.8791393757,0-16.3028157556,13.4150804421-29.474295259,29.8054234035-29.0798759545,15.4856506289.3712192151,28.0828812348,13.0380234122,28.3786934901,28.5239096879.0812314361,4.437201614-.8235720506,8.6471152691-2.5229230223,12.4351056424h133.9822769798c-1.623597211-3.62598101-2.5233943158-7.6447540281-2.5233943158-11.8791393757,0-16.296982387,13.403658244-29.4684707827,29.7945880992-29.0798759545,15.6240019477.3653947388,28.279388393,13.2468864632,28.3901156882,28.8770685804.0233156897,3.8287883841-1.5315082398,8.728693506-2.8532286263,12.0877712261,0,0,17.4107556326-6.1307192171,21.9808442287-10.0166141455,1.646895116-1.3974741472,3.1725699872-2.9289912793,3.312428556-5.086741871.7191405252-11.3328568567-1.5315082398-28.0074698288-4.4837974241-34.5729350678ZM244.5610817001,134.9742819884s-.8461763539,12.0172550479-.8461763539,12.0230795241c-12.2789207553,1.7167176925-26.8481144988,3.2710747746-41.7017027457,3.781463403,0-.0231911971,2.169070528-19.017693063,2.1807194805-19.1046422674,1.9196406669-.058040239,3.8346217527-.0927736806,5.7367623138-.0927736806,13.2812819963,0,24.8923531868,1.420900991,34.6303973053,3.3928730209ZM161.1705167335,152.7334302246c-8.9023607141.7134227569-17.3058705983,1.3919964718-25.3620549585,1.3919964718-6.4843405108,0-12.3016406589-.4408016986-17.82884632-1.3688052747-.5103841822-.0870648047-.6089912314-.7713518417-.1392805674-.991752691,12.800144688-6.0086853241,39.1319171434-16.2221578748,75.5024545388-19.4469614094.469710664-.0405579179.9452546966-.0754069598,1.4149653606-.1159693238-.0291490583.1101448476-5.538623413,18.8321412556-5.538623413,18.8321412556M247.6753891401,146.4232193231s.5921046964-10.6485653734.5921046964-10.6543942959c9.2683334544,2.111136997,16.6228596106,4.6630756926,21.8479572466,6.8032328091-5.144675402,1.0149483343-12.9747455908,2.4533360926-22.4400619431,3.8511614868Z"/>
    <path class="cls-7" d="M190.785604256,160.2007822659l-14.8594038308.3770525837c-1.2238158314.0290156733-2.1982018016,1.0555106983-2.169070528,2.2793176374.0291490583,1.2238158314,1.0548082043,2.1982018016,2.2786240356,2.169177236l14.8594038308-.3770525837c1.2238158314-.0290156733,2.1982018016-1.055501806,2.169070528-2.2793176374-.0291312736-1.2238158314-1.0548082043-2.1980862013-2.2786240356-2.1691772359Z"/>
    <path class="cls-7" d="M320.4001553974,158.6627381634c-2.1457548383-4.7558493732-.939421328-8.9201898361.151525306-11.2285320392.4114303321-.8814966893.0687554968-1.8965606239-.7191405252-2.3836380087l-22.028631611,5.5445679357c-2.1748861119.539413194-2.1399214697,3.6365895599.0349646422,4.1411492658l23.1417023625,5.3590161284c-.1911495292-.5162175508-.3822990585-.9917526911-.5804201746-1.432563282Z"/>
    <path class="cls-7" d="M57.145072863,196.1478757911c-10.718147857-1.6763909752-20.4385985002-3.7353033171-28.9760290997-6.1422525693.9279991299,6.6294455545,2.9985737628,12.7252001294,5.5678791793,14.1051919555,7.3832016979,3.9558331052,19.0467154056,4.2285608714,25.9253551744,4.2285608714-1.624055166-3.6248161148-2.5229185761-7.6447451358-2.5229185761-11.8791304834,0-.1037379237.0057133221-.2086318503.0057133221-.3123697741Z"/>
    <path class="cls-7" d="M244.6310109845,191.7857432284c-18.4900533141,3.1087141643-38.2738517441,5.5731256541-58.8805108382,7.2270190339-24.880695342,1.988405056-48.764845027,2.6154655023-70.7926496512,2.0350275431-.4059615491,2.5583500657-1.142575503,5.0059728361-2.1690616357,7.290421348h133.9879769634c-1.623597211-3.6248161148-2.5292098997-7.6435802406-2.5292098997-11.8779655882,0-1.5948038459.1398585688-3.1491653742.3834550614-4.6745023368Z"/>
    <path class="cls-7" d="M297.437935827,180.2145452463c3.1212968115,4.5993176853,4.9651748253,10.1206899778,5.0059728361,16.0370684686.0291312736,3.8276145965-1.5315082398,8.7450109318-2.8532286263,12.0970903881,0,0,17.4107556326-6.1412032744,21.9808442287-10.0270982028,1.646895116-1.3974830395,3.1725699872-2.9289912793,3.312428556-5.0864039625.4056325328-6.3797844927-.1281918317-14.4473954972-1.2016739293-21.4536624348-7.9979040283,2.9637247209-16.7837040786,5.794108951-26.2443430652,8.4330057433Z"/>
    <path class="cls-7" d="M277.2963117925,142.3226049727v.0058935065c-8.8685486214-4.3152254789-39.4906584736-17.1038203215-84.2308596607-13.1425195546-45.1750633887,4.0018480918-75.0503480938,18.6349533171-83.2919847809,23.1123680956-.8643023772.4698303403-.7076136836,1.7573650662.2435982698,2.0009633359,26.2040230394,6.6582479336,49.2991035158.1044329357,84.4049931335-.2088658713,35.7330372922-.3131416468,72.278356944-7.4527711935,82.6306547686-9.7378801241,1.0035462914-.2204171441,1.1655784308-1.5833887535.2435982698-2.0299593881ZM189.2191140323,151.0340720001l-28.0486120022,1.6993729619c-8.9023380588.7134286101-17.3058497252,1.3919676615-25.362037407,1.3919676615-6.484350201,0-12.3016340433-.4407557081-17.8288002043-1.3687865358-.5103776652-.0870667364-.6089956744-.7713421342-.1393224943-.9917592783,12.8001461154-6.0087049343,39.1319403763-16.2221517451,75.5024979145-19.4469213563.4696731801-.040625905.9452398668-.0754368835,1.4149130469-.1159842085-.0291532123.1100907019-5.5386388537,18.8321107554-5.5386388537,18.8321107554ZM243.7149544432,146.9973343496c-12.2789243982,1.7167391612-26.8481440127,3.2711318626-41.7017449622,3.7815095278,0-.0231811257,2.1690461421-19.017716921,2.1807545751-19.1046264972,1.9196329459-.0580706843,3.8346296666-.0928030828,5.7367392531-.0928030828,13.2812919882,0,24.8923642268,1.4208851335,34.6304015111,3.3928524174,0,0-.8461503771,12.0172527084-.8461503771,12.0230676348ZM247.6753908291,146.4232282339s.5921009557-10.6485447526.5921009557-10.6544382592c9.2683641042,2.111211198,16.6229101889,4.6630995241,21.8480144954,6.8033067743-5.1447168775,1.014940404-12.9747510688,2.4532703168-22.4401154511,3.8511314849Z"/>
    <path class="cls-3" d="M69.7713191423,161.7065383175c-1.2121579865,1.5428192837-5.6491195077,4.7616738494-9.3146091406,7.6152581689-.54512207.4233193776-1.2121579865.6843981912-1.8907317015.9280035761-2.7838817895.997461567-10.6891277375,1.7167088001-20.5952480115,2.4416738016-.7134227569.0522157627-1.0613351746-1.142575503-.4002437808-1.6297684881,3.2131479128-2.3952914074,10.4571846436-7.0294581346,19.2149004922-9.4073828212.3595702626-.0986070492,1.5137991643-.3247212206,1.8791939031-.3827614596,2.4765317358-.3712281074,6.7336503255-.7134227569,10.5499627704-.8351054029.7828896401-.0233156897,1.0496817759.643724673.5567754687,1.264258149v.0058244763Z"/>
    <path class="cls-4" d="M126.1693626143,146.5552748722c2.3954159,0,4.9245101995,1.3918808715,4.9245101995,4.3846301581,0,2.9927448404-2.2391154127,5.3416449614-5.173815568,5.6664817823-1.2643737493.1391649671-6.0377054436.2377720163-7.9342616213-2.5113807777-.7423317222-1.0729885733-.6669247624-2.5229185761-.0463912865-3.7756344805,1.026601733-2.0763991092,5.092344039-3.7640966822,8.2357916449-3.7640966822h-.0058333686Z"/>
    <path class="cls-6" d="M124.2669819603,152.8143193059c-2.4301404493,0-4.7326581761-.423439424-6.7625548447-1.1542333478-.1392805674.8642455688-.0116578448,1.7226622152.4755351403,2.4301448955,1.8965650701,2.7491439017,6.6698967644,2.6505457448,7.9341549134,2.5113807777,2.6778467713-.2715796535,4.8388538165-2.3316079087,5.132920533-4.9415256732-2.0359523454.7366184001-4.3440908163,1.1542333478-6.7800557419,1.1542333478Z"/>
    <g>
      <path d="M85.9436562927,220.636849278c12.6302538802,0,22.8719580448-10.2407383464,22.8719580448-22.8712105418,0-12.6301271892-10.2417041647-22.871555548-22.8719580448-22.871555548-12.629086188,0-22.870808045,10.2414283587-22.870808045,22.871555548,0,12.6304721954,10.241721857,22.8712105418,22.870808045,22.8712105418Z"/>
      <path class="cls-5" d="M87.6241108889,213.8477064962c-10.2161705726,1.0372235743-18.7856487904-7.5145653952-17.7648281588-17.736136245.7869873331-7.8801765301,7.3852339622-14.1168767353,15.2955836115-14.4948974144,9.5329880628-.4555635061,17.3854572774,7.3914240522,16.93889402,16.9222703928-.3704697388,7.906808489-6.5946497892,14.5092332214-14.4696494727,15.3087632666Z"/>
    </g>
  </g>
  <g>
    <path class="cls-8" d="M321.47265625,156.119140625c-.7197265625,0-1.421875-.26953125-1.9775390625-.7587890625l-7.4541015625-6.38671875-7.4111328125,6.396484375c-.576171875.486328125-1.26953125.7490234375-1.966796875.7490234375-1.7685546875,0-3.2080078125-1.5810546875-3.2080078125-3.5244140625v-26.525390625c0-1.943359375,1.435546875-3.5244140625,3.19921875-3.5244140625h18.8359375c1.763671875,0,3.19921875,1.5810546875,3.19921875,3.5244140625v26.525390625c0,1.943359375-1.439453125,3.5244140625-3.2080078125,3.5244140625h-.0087890625Z"/>
    <path class="cls-3" d="M321.4897460938,124.044921875c.9360351562,0,1.700012207.9080810547,1.700012207,2.0240478516v26.5260009766c0,1.1159667969-.7639770508,2.0239257812-1.7080078125,2.0239257812h-.008972168c-.3519897461,0-.6950073242-.1279296875-.9869995117-.3850097656l-8.4479980469-7.2388916016-8.3880004883,7.2388916016c-.291015625.2470703125-.6350097656.3850097656-.9869995117.3850097656-.9440307617,0-1.7080078125-.9079589844-1.7080078125-2.0239257812v-26.5260009766c0-1.1159667969.7639770508-2.0240478516,1.700012207-2.0240478516h18.8349609375M321.4897460938,121.044921875h-18.8349609375c-2.5916137695,0-4.700012207,2.2537841797-4.700012207,5.0240478516v26.5260009766c0,2.7701416016,2.1119995117,5.0239257812,4.7080078125,5.0239257812,1.0545043945,0,2.0946044922-.3900146484,2.9286499023-1.0980224609l6.4533081055-5.5692138672,6.4890136719,5.5603027344c.7997436523.7044677734,1.854309082,1.1069335938,2.9390258789,1.1069335938,2.6049804688,0,4.7169799805-2.2537841797,4.7169799805-5.0239257812v-26.5260009766c0-2.7702636719-2.1083984375-5.0240478516-4.700012207-5.0240478516h0Z"/>
  </g>
</svg>