<?xml version="1.0" encoding="UTF-8"?>
<svg id="_レイヤー_1" data-name="レイヤー 1" xmlns="http://www.w3.org/2000/svg" xmlns:xlink="http://www.w3.org/1999/xlink" viewBox="0 0 413 255">
  <defs>
    <style>
      .cls-1, .cls-2 {
        fill: none;
      }

      .cls-3 {
        fill: #0067df;
      }

      .cls-4 {
        fill: #ffac9d;
        opacity: .6;
      }

      .cls-5 {
        fill: #fff;
      }

      .cls-6 {
        fill: #e9e9e9;
      }

      .cls-7 {
        opacity: .1;
      }

      .cls-2 {
        opacity: .4;
        stroke: #d15e5b;
        stroke-linecap: round;
        stroke-miterlimit: 10;
        stroke-width: 3px;
      }

      .cls-8 {
        fill: #feb34b;
      }

      .cls-9 {
        clip-path: url(#clippath);
      }
    </style>
    <clipPath id="clippath">
      <rect class="cls-1" x="103.3575750007" y="33" width="249" height="222"/>
    </clipPath>
  </defs>
  <path class="cls-5" d="M166.1325688972,190.078994751c-2.1199951172-2.9869995117-15.550994873-23.3339996338-18.4859924316-25.1139984131-.7129974365-.4299926758-1.4250030518-.4579925537-2.0379943848-.1029968262-.4510040283.2610015869-1.2550048828.93699646-1.1520080566,2.43800354.1089935303,1.6219940186,1.0010070801,4.3600006103,1.8529968262,7.1159973145,1.2070007324,3.9019927978,5.4720001221,15.3659973144,5.4720001221,15.3659973144l-5.0479888916-2.9530029297c-.0760040283.5579986572-.8400115967,3.8050079346-.9820098877,4.4260101318-.9219970703,4.0629882812-2.4140014648,10.5419921875-2.4140014648,10.5419921875,0,0,14.5989990234-.5879974365,16.3639984131-.5359954834,2.3619995117.0690002441,7.3520050049-.18800354,14.5620117188,3.3769989014-2.5770111084-4.9239959717-5.1360015869-9.9199981689-8.1310119629-14.5590057373Z"/>
  <path class="cls-4" d="M166.1325688972,190.078994751c-2.1199951172-2.9869995117-15.550994873-23.3339996338-18.4859924316-25.1139984131-.7129974365-.4299926758-1.4250030518-.4579925537-2.0379943848-.1029968262-.4510040283.2610015869-1.2550048828.93699646-1.1520080566,2.43800354.1089935303,1.6219940186,1.0010070801,4.3600006103,1.8529968262,7.1159973145,1.2070007324,3.9019927978,5.4720001221,15.3659973144,5.4720001221,15.3659973144l-5.0479888916-2.9530029297c-.0760040283.5579986572-.8400115967,3.8050079346-.9820098877,4.4260101318-.9219970703,4.0629882812-2.4140014648,10.5419921875-2.4140014648,10.5419921875,0,0,14.5989990234-.5879974365,16.3639984131-.5359954834,2.3619995117.0690002441,7.3520050049-.18800354,14.5620117188,3.3769989014-2.5770111084-4.9239959717-5.1360015869-9.9199981689-8.1310119629-14.5590057373Z"/>
  <path class="cls-7" d="M166.1325688972,190.078994751c-2.1199951172-2.9869995117-15.550994873-23.3339996338-18.4859924316-25.1139984131-.7129974365-.4299926758-1.4250030518-.4579925537-2.0379943848-.1029968262-.4510040283.2610015869-1.2550048828.93699646-1.1520080566,2.43800354.1089935303,1.6219940186,1.0010070801,4.3600006103,1.8529968262,7.1159973145,1.2070007324,3.9019927978,5.4720001221,15.3659973144,5.4720001221,15.3659973144l-5.0479888916-2.9530029297c-.0760040283.5579986572-.8400115967,3.8050079346-.9820098877,4.4260101318-.9219970703,4.0629882812-2.4140014648,10.5419921875-2.4140014648,10.5419921875,0,0,14.5989990234-.5879974365,16.3639984131-.5359954834,2.3619995117.0690002441,7.3520050049-.18800354,14.5620117188,3.3769989014-2.5770111084-4.9239959717-5.1360015869-9.9199981689-8.1310119629-14.5590057373Z"/>
  <path d="M135.2305760993,141.6929931641c-.5180053711-1.5039978027-2.1569976807-2.3039855957-3.6609954834-1.7859954834-1.5040130615.5180053711-2.3040008545,2.1569976807-1.7860107422,3.6609954834l18.8540039062,54.7550048828c.5180053711,1.5050048828,2.1569976807,2.3040008545,3.6609954834,1.7859954834,1.5040130615-.5179901123,2.3040008545-2.1569976807,1.7860107422-3.6609954834l-18.8540039062-54.7550048828Z"/>
  <path class="cls-5" d="M188.4625707282,219.2649993897c.8330078125-.9609985352.7850036621-2.4010009766-.1159973145-3.3020019531-2.9739990234-2.9739990234-9.516998291-9.2109985351-14.0829925537-11.3209991455-4.3990020752-2.0350036621-7.1950073242-3.8419952393-20.1139984131-3.375-4.9270019531.1790008545-10.8120117188.5310058594-10.8120117188.5310058594,0,0,3.3200073242-14.4110107422,3.3960113525-14.9690093994.4759979248-3.4680023193-.325012207-5.5909881592-2.7380065918-4.8689880371,2.5590057373-3.7990112305.2729949951-7.6380004883-2.9559936523-5.8760070801,3.5899963379-4.4570007324.2329864502-7.4589996338-2.2980041504-6.1849975586,1.3209991455-1.3740081787,1.7399902344-3.1630096436,1.5610046387-4.1600036621-.4370117188-2.4620056152-2.950012207-3.6289978027-5.0820007324-1.5950012207-2.9920043945,2.8590087891-13.4250030518,14.7440032959-12.0520095825,19.2169952393,2.0200042725,6.5760040283,9.7150039673,27.1290130615,12.3190078735,28.5060119629,4.7449951172,2.5099945068,23.3219909668,11.1609954834,26.7389984131,12.5309906006,0,0,7.3309936523,6.0879974365,10.8389892578,8.9990081787,1.0160064697.8430023193,2.5170135498.7180023193,3.3810119629-.279006958l12.0159912109-13.8560028076v.0030059815Z"/>
  <path class="cls-4" d="M188.4625707282,219.2649993897c.8330078125-.9609985352.7850036621-2.4010009766-.1159973145-3.3020019531-2.9739990234-2.9739990234-9.516998291-9.2109985351-14.0829925537-11.3209991455-4.3990020752-2.0350036621-7.1950073242-3.8419952393-20.1139984131-3.375-4.9270019531.1790008545-10.8120117188.5310058594-10.8120117188.5310058594,0,0,3.3200073242-14.4110107422,3.3960113525-14.9690093994.4759979248-3.4680023193-.325012207-5.5909881592-2.7380065918-4.8689880371,2.5590057373-3.7990112305.2729949951-7.6380004883-2.9559936523-5.8760070801,3.5899963379-4.4570007324.2329864502-7.4589996338-2.2980041504-6.1849975586,1.3209991455-1.3740081787,1.7399902344-3.1630096436,1.5610046387-4.1600036621-.4370117188-2.4620056152-2.950012207-3.6289978027-5.0820007324-1.5950012207-2.9920043945,2.8590087891-13.4250030518,14.7440032959-12.0520095825,19.2169952393,2.0200042725,6.5760040283,9.7150039673,27.1290130615,12.3190078735,28.5060119629,4.7449951172,2.5099945068,23.3219909668,11.1609954834,26.7389984131,12.5309906006,0,0,7.3309936523,6.0879974365,10.8389892578,8.9990081787,1.0160064697.8430023193,2.5170135498.7180023193,3.3810119629-.279006958l12.0159912109-13.8560028076v.0030059815Z"/>
  <path class="cls-6" d="M113.3505712165,80.8899002075c-12.0559997559-12.0561981201-31.6019973755-12.0561981201-43.6638946533.0055999756-12.0618019104,12.0617980957-12.0562019348,31.6025009155,0,43.6585006714,10.608795166,10.6089935303,27.0241012573,11.8759918213,39.0238952637,3.8150024414l11.5400009155,3.091003418-3.0909957886-11.5400085449c8.0680007935-12.0059967041,6.8050003052-28.4156951904-3.8090057373-39.0300979614Z"/>
  <path class="cls-8" d="M102.5115743293,118.0670013428c-.3939971924,0-.7789993286-.1230010986-1.1060028076-.3690032959l-9.4685974121-6.9359970093-9.4008026123,6.9359970093c-.3271942139.236000061-.712097168.3690032959-1.1065979004.3690032959-1.0583953857,0-1.9147949219-.8710021973-1.9147949219-1.9400024414v-25.4156951904c0-1.0693054199.8563995361-1.9398040772,1.9051971436-1.9398040772h21.1105957031c1.0490036011,0,1.9060058594.8704986572,1.9060058594,1.9398040772v25.4156951904c0,1.0690002441-.8570022583,1.9400024414-1.9150009155,1.9400024414h-.0100021362Z"/>
  <g class="cls-9">
    <g>
      <path class="cls-3" d="M156.9365697517,227.4179992676c-.4609985352.4609985352-.4759979248,1.2010040283-.0369873047,1.6770019531l41.1169891357,44.7569885254.012008667-.0119934082c9.2050018311,8.7200012207,21.6689910889,8.4750061035,29.483001709.6610107422,7.8129882812-7.8130187988,8.06199646-20.2810058594-.6610107422-29.4820098877l.012008667-.0130004883-44.7580108643-41.1159973144c-.4789886475-.4400024414-1.2189941406-.4239959717-1.6769866943.0359954834l-23.4910125732,23.4920043945Z"/>
      <path class="cls-7" d="M198.0315709724,273.8399963379c9.2050018311,8.7200012207,21.6690063477,8.4739990234,29.4820098877.6610107422,7.8139953613-7.8139953613,8.06199646-20.2810058594-.6610107422-29.483001709l.012008667-.012008667-37.9470062256-34.8609924316c.858001709,6.3450012207,2.3829956055,20.0130004883,1.7819976807,33.3150024414-.4149932861,9.2289886475-1.1549987793,16.0269927978-1.7789916992,20.4869842529l9.0979919434,9.9049987793.0130004883-.0119934082Z"/>
    </g>
    <path class="cls-5" d="M303.6075750007,79.576499939c-4.5260009766-19.9870986938-27.449005127-30.4101982117-47.6029968262-27.9230995178-13.7050018311,1.6922988892-25.7429962158,7.6539001465-32.6020050049,17.0898017883-6.8589935303,9.4230957031-8.4869995117,19.8717956543-9.1669921875,27.5127944946-.7820129395,8.7820053101.7049865723,12.6150054932.0260009766,15.7440032959-.5900115967,2.6920013428-2.5,5.3460006714-4,7.0250015259-2.5,2.7819976807-5.8210144043,4.5260009766-3.3339996338,7.705001831,1.0389862061,1.3209915161,5.0769958496,3.5640029907,5.0769958496,3.5640029907,2.0390014648.9749908447,4.3979949951,12.6669921875,5.7440032959,16.6799926758,1.345993042,4.0130004883,3.5899963379,8.0379943848,8.1539916992,8.0379943848h14.3070068359c1.8079986572,0,3.3849945068,1.2700042725,3.782989502,3.0260009766l2.6529998779,16.3330078125,47.4750061035,3.1289978027-4.6029968262-35.294998169c.3460083008-22.5260009766,21.8980102539-28.127998352,14.0899963379-62.6285018921Z"/>
    <path class="cls-4" d="M303.6075750007,79.576499939c-4.5260009766-19.9870986938-27.449005127-30.4101982117-47.6029968262-27.9230995178-13.7050018311,1.6922988892-25.7429962158,7.6539001465-32.6020050049,17.0898017883-6.8589935303,9.4230957031-8.4869995117,19.8717956543-9.1669921875,27.5127944946-.7820129395,8.7820053101.7049865723,12.6150054932.0260009766,15.7440032959-.5900115967,2.6920013428-2.5,5.3460006714-4,7.0250015259-2.5,2.7819976807-5.8210144043,4.5260009766-3.3339996338,7.705001831,1.0389862061,1.3209915161,5.0769958496,3.5640029907,5.0769958496,3.5640029907,2.0390014648.9749908447,4.3979949951,12.6669921875,5.7440032959,16.6799926758,1.345993042,4.0130004883,3.5899963379,8.0379943848,8.1539916992,8.0379943848h14.3070068359c1.8079986572,0,3.3849945068,1.2700042725,3.782989502,3.0260009766l2.6529998779,16.3330078125,47.4750061035,3.1289978027-4.6029968262-35.294998169c.3460083008-22.5260009766,21.8980102539-28.127998352,14.0899963379-62.6285018921Z"/>
    <path class="cls-7" d="M240.2225804938,155.0130004883s43.1410064697-12.0769958496,44.9229888916-13.7689971924c1.7820129395-1.6920013428-39.2050018311,28.7429962158-39.2050018311,28.7429962158,0,0-1.4489898682-9.0509948731-1.9359893799-11.9479980469-.7050018311-3.0899963379-3.7819976807-3.0260009766-3.7819976807-3.0260009766Z"/>
    <path d="M224.3185735358,116.4069976807c-1.4609985352,0-2.5639953613-1.3470001221-2.5639953613-3.1289978027s1.1029968262-3.127998352,2.5639953613-3.127998352c1.4620056152,0,2.5639953613,1.3460006714,2.5639953613,3.127998352s-1.1019897461,3.1289978027-2.5639953613,3.1289978027Z"/>
    <path class="cls-2" d="M221.063568653,137.0469970703c3.1150054932.1029968262,6.2430114746-1.2299957275,8.3200073242-3.550994873"/>
    <path class="cls-3" d="M245.5545812263,166.5890045166c-3.1790008545,2.9359893799-10.1410064697,12.6409912109-17.8200073242,25.9739990234-7.6799926758,13.345993042-28.6289978027,57.7180023193-32.7949981689,108.5519866943-.0639953613.7430114746.5379943848,1.3840026855,1.2819976807,1.3840026855h123.0770111084c.6539916992,0,1.191986084-.4739990234,1.2689819336-1.1149902344,1.808013916-14.2180175781,5.0639953613-100.1800079346-27.1149902344-142.5260009766-.2950134277-.3840026855-.7820129395-.5639953613-1.2569885254-.4869995117l-46.6410064697,8.2180023193Z"/>
    <path d="M344.1845708503,182.4360046387c2.449005127-4.0650024414,3.8590087891-8.8590087891,3.8590087891-13.9490051269,0-12.7819976807-8.8460083008-23.5-20.7430114746-26.3719940186-4.0390014648-.9739990234-7.2819824219-4.0380096436-8.449005127-8.0380096436-2.742980957-9.4359970093-4.6149902344-19.1409988403-5.5260009766-28.922996521-1.0639953613-11.423500061-1.6279907227-23.410697937-6.3710021973-33.5389022827-1.6929931641-3.6026000977-3.9489746094-6.7820968628-6.3979797363-9.6794967651-6.1920166016-7.3333015442-14.9609985352-13.3973999023-24.9739990234-15.6539001465-13.2180175781-2.9870986939-29.0510101318-1.8204994202-41.5,4.7052001953-13.3079986572,6.987197876-20.4620056152,25.3973999023-20.154006958,27.6538009644.1029968262.7948989868,1.0130004883,2.5384979248,2.5390014648,4.7180023193,2.8199920654,4.0255966187,7.7819976807,9.5383987427,14.050994873,13.4358978272,8.7310028076,5.4234008789,25.6920013428,8.6024017334,27.3840179443,8.3333969116,0,0,3.4619750977-3.3460006714,8.0899963379-3.5130004883,3.4749755859-.1149978638,7.1159973145,1.8209991455,8.9230041504,4.9490051269,2.8589782715,4.9869995117,1.2569885254,9.8969955444-.4100036621,11.8719940186-1.4100036621,1.6660003662-5.115020752,5.5380020142-11.7950134277,5.8590011597-3.9609985352,9.8200073242-3.9230041504,34.9479980469-1.8330078125,51.0250091553.5130004883,3.9619903564,1.1410217285,7.3719940185,1.8720092773,9.8719940185,3.6920166016,12.6669921875,11.1530151367,25.7180023193,21.4479980469,33.9620056152,5.5390014648,4.4349975586,21.2310180664,11.6019897461,34.4869995117,9.8589935303,15.1029968262-1.9880065918,27.1409912109-12.154006958,27.1409912109-27.1410064697,0-3.7829895019-.7689819336-7.3719940185-2.1659851074-10.641998291-1.2309875488-2.8710021973-1.0769958496-6.1149902344.5249938965-8.7939910889Z"/>
  </g>
</svg>